<svg xmlns="http://www.w3.org/2000/svg" viewBox="0 0 465 178.83"><defs><style>.cls-1{fill:#3f92cf;}.cls-2{fill:#42ba85;}.cls-3{fill:#faa338;}.cls-4{fill:#5f4b9f;}.cls-5{fill:#f26655;}.cls-6{fill:#ee3075;}.cls-7{fill:#4b499e;}.cls-8{fill:#9d54a1;}.cls-9{fill:#46ba85;}.cls-10{fill:#04a46a;}.cls-11{fill:#231f20;}</style></defs><g id="Layer_2" data-name="Layer 2"><g id="Layer_1-2" data-name="Layer 1"><path class="cls-1" d="M244.77,105.53a12.5,12.5,0,0,1-8.85-21.34,34.68,34.68,0,0,1-49,0h0a12.51,12.51,0,1,0-17.7,17.69l0,0a59.68,59.68,0,0,0,84.32,0A12.5,12.5,0,0,1,244.77,105.53Z"/><path class="cls-2" d="M253.62,17.48l0,0,0,0a12.51,12.51,0,1,1-17.7,17.69h0a34.64,34.64,0,0,1,0,49v0a12.51,12.51,0,0,0,17.66,17.72s0,0,0,0a59.67,59.67,0,0,0,0-84.39Z"/><path class="cls-3" d="M186.93,35.16a12.51,12.51,0,0,0-17.67-17.72l0,0a59.67,59.67,0,0,0,0,84.39l0,0,0,0a12.51,12.51,0,1,1,17.69-17.69h0a34.63,34.63,0,0,1,0-49Z"/><path class="cls-4" d="M253.62,17.48l0,0a59.68,59.68,0,0,0-84.32,0,12.51,12.51,0,0,1,17.67,17.72,34.66,34.66,0,0,1,49,0h0a12.51,12.51,0,1,0,17.7-17.69Z"/><path class="cls-5" d="M341.7,69.84a12.35,12.35,0,0,1-5-1,12.51,12.51,0,0,1-6.5-16.46l-9,20.79,11.48,26.45a12.49,12.49,0,0,1-.1,10.15c0-.07.07-.12.1-.19l20.5-47.23A12.53,12.53,0,0,1,341.7,69.84Z"/><path class="cls-4" d="M365.16,3.31a12.51,12.51,0,0,0-16.46,6.5L330.23,52.34a12.51,12.51,0,0,0,6.5,16.46,12.35,12.35,0,0,0,5,1,12.53,12.53,0,0,0,11.49-7.53l18.46-42.54A12.52,12.52,0,0,0,365.16,3.31Z"/><path class="cls-1" d="M309.73,99.58l11.48-26.45-9-20.79a12.5,12.5,0,0,1-6.49,16.46,12.36,12.36,0,0,1-5,1,12.52,12.52,0,0,1-11.48-7.53l20.5,47.23c0,.07.07.12.1.19A12.49,12.49,0,0,1,309.73,99.58Z"/><path class="cls-6" d="M332.69,99.58,321.21,73.13,309.73,99.58a12.49,12.49,0,0,0,.1,10.15,13.08,13.08,0,0,0,.73,1.39l.08.13a11.18,11.18,0,0,0,1,1.3,3.88,3.88,0,0,0,.26.31,13.63,13.63,0,0,0,1.07,1.08l.08.07a11,11,0,0,0,1.28,1c.11.08.23.15.35.22a12.66,12.66,0,0,0,1.14.63l.31.15a11.79,11.79,0,0,0,1.5.56l.31.08c.42.12.86.21,1.3.29l.4.06a10.86,10.86,0,0,0,3.22,0l.4-.06c.44-.08.88-.17,1.3-.29l.31-.08a11.79,11.79,0,0,0,1.5-.56l.31-.16a10.51,10.51,0,0,0,1.14-.62c.12-.07.24-.14.35-.22a12.94,12.94,0,0,0,1.28-1l.09-.08a13.13,13.13,0,0,0,1.05-1.06,3.82,3.82,0,0,0,.27-.32,11.18,11.18,0,0,0,1-1.3l.08-.14a12.93,12.93,0,0,0,.73-1.38A12.49,12.49,0,0,0,332.69,99.58Z"/><path class="cls-2" d="M312.18,52.34,293.72,9.81a12.51,12.51,0,1,0-23,10l18.46,42.54a12.52,12.52,0,0,0,11.48,7.53,12.36,12.36,0,0,0,5-1A12.5,12.5,0,0,0,312.18,52.34Z"/><path class="cls-2" d="M392.39,2.3A12.51,12.51,0,0,1,404.9,14.81V27.28h47.59a12.51,12.51,0,0,0,0-25h-60.1"/><path class="cls-3" d="M434.75,69.82a12.51,12.51,0,0,0,0-25H404.9v25Z"/><path class="cls-5" d="M392.42,117.09h60.07a12.51,12.51,0,0,0,0-25H404.9v12.51A12.51,12.51,0,0,1,392.42,117.09Z"/><path class="cls-4" d="M379.87,57.31v47.27a12.52,12.52,0,0,1,12.52-12.51H404.9V69.82H392.39A12.52,12.52,0,0,1,379.87,57.31Z"/><path class="cls-4" d="M392.39,27.28a12.51,12.51,0,0,1-12.52-12.49V57.31A12.52,12.52,0,0,1,392.39,44.8H404.9V27.28Z"/><path class="cls-7" d="M392.39,27.28H404.9V14.81a12.52,12.52,0,1,0-12.51,12.47Z"/><path class="cls-8" d="M379.87,57.31a12.52,12.52,0,0,0,12.52,12.51H404.9v-25H392.39A12.52,12.52,0,0,0,379.87,57.31Z"/><path class="cls-8" d="M379.87,104.58a12.52,12.52,0,0,0,12.52,12.51h0a12.51,12.51,0,0,0,12.48-12.51V92.07H392.39A12.52,12.52,0,0,0,379.87,104.58Z"/><path class="cls-4" d="M43.31,14.79v89.77a12.51,12.51,0,0,0,25,0V49.67L46.16,22.74A12.4,12.4,0,0,1,43.31,14.79Z"/><path class="cls-9" d="M142.25,104.56V14.79a12.52,12.52,0,0,0-25,0V69.68L139.4,96.61A12.46,12.46,0,0,1,142.25,104.56Z"/><path class="cls-3" d="M117.22,69.68,65.48,6.84h0a12.51,12.51,0,0,1,2.85,8V49.67l51.75,62.85h0a12.44,12.44,0,0,1-2.86-8Z"/><path class="cls-8" d="M65.48,6.83c-.27-.32-.54-.62-.83-.91l-.49-.44c-.14-.12-.27-.25-.42-.37s-.38-.29-.58-.43-.26-.21-.4-.3L62.18,4l-.47-.28-.54-.26c-.19-.09-.38-.19-.58-.27l-.47-.17c-.23-.08-.45-.17-.68-.24L59,2.7c-.24-.06-.49-.13-.74-.18l-.51-.08c-.23,0-.46-.08-.69-.1q-.6-.06-1.23-.06H55.7c-.38,0-.75,0-1.12.06l-.49.07c-.24,0-.48.06-.72.11l-.58.14-.61.16c-.21.06-.41.14-.61.21l-.54.2c-.21.09-.42.2-.63.3a5.24,5.24,0,0,0-.48.23c-.24.12-.47.27-.71.42s-.23.13-.34.21a10.33,10.33,0,0,0-1,.74A12.3,12.3,0,0,0,47,6l-.42.47a5.56,5.56,0,0,0-.39.44c-.16.18-.29.38-.44.58s-.2.26-.29.4-.24.39-.36.59l-.27.46c-.1.18-.18.37-.27.56a5.45,5.45,0,0,0-.25.55c-.07.17-.13.34-.19.5s-.16.44-.23.66l-.12.48c-.06.23-.12.47-.17.7s-.06.39-.09.58-.07.42-.09.62c0,.41-.06.82-.06,1.24h0a12.4,12.4,0,0,0,2.85,8L68.33,49.67V14.79A12.51,12.51,0,0,0,65.48,6.83Z"/><path class="cls-10" d="M139.85,111.9c.1-.13.2-.26.29-.4s.25-.39.37-.59.18-.3.26-.46.18-.37.27-.56.18-.36.26-.55.12-.34.18-.51.17-.43.23-.65.08-.32.13-.48.12-.47.17-.7.06-.39.09-.58.07-.42.09-.63q.06-.6.06-1.23h0a12.46,12.46,0,0,0-2.85-8L117.22,69.68v34.88a12.44,12.44,0,0,0,2.86,8c.28.34.58.66.89,1,.12.12.25.22.38.34l.6.52.47.35.6.41.49.29c.22.13.45.25.68.36l.46.23.81.32.39.14q.48.15,1,.27l.3.07a10.87,10.87,0,0,0,1.12.18,1.13,1.13,0,0,0,.18,0,11.85,11.85,0,0,0,1.33.07h0a11.83,11.83,0,0,0,1.88-.16l.34,0a12.24,12.24,0,0,0,1.78-.46l.31-.11a12.38,12.38,0,0,0,1.74-.79l.17-.1a12.82,12.82,0,0,0,1.72-1.18c.32-.27.63-.55.91-.83s.28-.31.42-.46l.4-.44C139.57,112.3,139.71,112.1,139.85,111.9Z"/><path class="cls-2" d="M12.51,2.28A12.51,12.51,0,0,0,0,14.79v42.5a12.52,12.52,0,1,1,25,0V14.79A12.52,12.52,0,0,0,12.51,2.28Z"/><path class="cls-8" d="M12.51,44.77A12.52,12.52,0,0,0,0,57.29v47.27a12.52,12.52,0,0,0,25,0V57.29A12.53,12.53,0,0,0,12.51,44.77Z"/><path class="cls-11" d="M60.6,176.51v2.12H44.22V155.47H60.11v2.11H46.67v8.25h12v2.08h-12v8.6Z"/><path class="cls-11" d="M80.59,178.63l-7.48-10.19-7.45,10.19H62.85l8.8-11.91-8.24-11.25h2.82l7,9.46,7-9.46H82.8l-8.2,11.18,8.83,12Z"/><path class="cls-11" d="M105.11,163.41c0,4.93-3.58,7.91-9.47,7.91H89.42v7.31H87V155.47h8.67C101.53,155.47,105.11,158.44,105.11,163.41Zm-2.45,0c0-3.71-2.45-5.83-7.09-5.83H89.42v11.59h6.15C100.21,169.17,102.66,167.05,102.66,163.41Z"/><path class="cls-11" d="M126.78,176.51v2.12H110.4V155.47h15.88v2.11H112.84v8.25h12v2.08h-12v8.6Z"/><path class="cls-11" d="M148.35,178.63l-5.3-7.44a18,18,0,0,1-1.85.1H135v7.34h-2.45V155.47h8.67c5.89,0,9.47,3,9.47,7.94a7.18,7.18,0,0,1-5.3,7.28l5.66,7.94Zm-.13-15.22c0-3.71-2.45-5.83-7.08-5.83H135V169.2h6.16C145.77,169.2,148.22,167.05,148.22,163.41Z"/><path class="cls-11" d="M156.45,155.47h2.45v23.16h-2.45Z"/><path class="cls-11" d="M182.83,176.51v2.12H166.44V155.47h15.89v2.11H168.89v8.25h12v2.08h-12v8.6Z"/><path class="cls-11" d="M207.94,155.47v23.16h-2L191,159.84v18.79h-2.45V155.47h2l14.92,18.79V155.47Z"/><path class="cls-11" d="M213.43,167.05c0-6.78,5.16-11.78,12.14-11.78a11.2,11.2,0,0,1,8.47,3.37l-1.55,1.56a9.18,9.18,0,0,0-6.85-2.75,9.6,9.6,0,1,0,0,19.2,9.1,9.1,0,0,0,6.85-2.78l1.55,1.55a11.25,11.25,0,0,1-8.5,3.41C218.59,178.83,213.43,173.83,213.43,167.05Z"/><path class="cls-11" d="M255.65,176.51v2.12H239.27V155.47h15.88v2.11H241.72v8.25h12v2.08h-12v8.6Z"/><path class="cls-11" d="M268,167.05c0-6.78,5.16-11.78,12.14-11.78a11.24,11.24,0,0,1,8.48,3.37l-1.56,1.56a9.18,9.18,0,0,0-6.85-2.75,9.6,9.6,0,1,0,0,19.2,9.1,9.1,0,0,0,6.85-2.78l1.56,1.55a11.29,11.29,0,0,1-8.51,3.41C273.18,178.83,268,173.83,268,167.05Z"/><path class="cls-11" d="M310.24,176.51v2.12H293.86V155.47h15.89v2.11H296.31v8.25h12v2.08h-12v8.6Z"/><path class="cls-11" d="M335.35,155.47v23.16h-2l-14.9-18.79v18.79H316V155.47h2l14.93,18.79V155.47Z"/><path class="cls-11" d="M347.4,157.58h-8.15v-2.11H358v2.11h-8.14v21H347.4Z"/><path class="cls-11" d="M378.27,176.51v2.12H361.89V155.47h15.88v2.11H364.34v8.25h12v2.08h-12v8.6Z"/><path class="cls-11" d="M399.84,178.63l-5.29-7.44a18.32,18.32,0,0,1-1.86.1h-6.22v7.34H384V155.47h8.67c5.89,0,9.47,3,9.47,7.94a7.18,7.18,0,0,1-5.3,7.28l5.66,7.94Zm-.13-15.22c0-3.71-2.45-5.83-7.08-5.83h-6.16V169.2h6.16C397.26,169.2,399.71,167.05,399.71,163.41Z"/></g></g></svg>